<mxfile host="app.diagrams.net" modified="2024-11-21T08:59:35.719Z" agent="Mozilla/5.0 (Windows NT 10.0; Win64; x64) AppleWebKit/537.36 (KHTML, like Gecko) Chrome/131.0.0.0 Safari/537.36" version="24.6.1" etag="Hh-B5XcNYBHrejC50FdZ" type="github">
  <diagram name="Page-1" id="K_O0k07-AHNrVQPotGTl">
    <mxGraphModel>
      <root>
        <mxCell id="0" />
        <mxCell id="1" parent="0" />
      </root>
    </mxGraphModel>
  </diagram>
</mxfile>
